<svg xmlns="http://www.w3.org/2000/svg" width="40" height="40" fill="none" style=""><rect id="backgroundrect" width="100%" height="100%" x="0" y="0" fill="none" stroke="none"/>
    
    
    <defs>
        <filter id="filter0_d_0_117" x="0" y="0" width="56" height="56" filterUnits="userSpaceOnUse" color-interpolation-filters="sRGB">
            <feFlood flood-opacity="0" result="BackgroundImageFix"/>
            <feColorMatrix in="SourceAlpha" type="matrix" values="0 0 0 0 0 0 0 0 0 0 0 0 0 0 0 0 0 0 127 0" result="hardAlpha"/>
            <feOffset dy="4"/>
            <feGaussianBlur stdDeviation="4"/>
            <feColorMatrix type="matrix" values="0 0 0 0 0 0 0 0 0 0 0 0 0 0 0 0 0 0 0.08 0"/>
            <feBlend mode="normal" in2="BackgroundImageFix" result="effect1_dropShadow_0_117"/>
            <feBlend mode="normal" in="SourceGraphic" in2="effect1_dropShadow_0_117" result="shape"/>
        </filter>
    </defs>
<g class="currentLayer" style=""><title>Layer 1</title><g filter="url(#filter0_d_0_117)" id="svg_1" class="">
        <path d="M20,40 C31.045699999999997,40 40,31.045699999999997 40,20 C40,8.9543 31.045699999999997,0 20,0 C8.9543,0 0,8.9543 0,20 C0,31.045699999999997 8.9543,40 20,40 z" fill="#FF3A62" id="svg_2"/>
    </g><path fill-rule="evenodd" clip-rule="evenodd" d="M22.5187,22.8962 H20.9211 L22.9781,25.328 H21.8093 L18.7521,21.9313 H19.5434 H21.5978 C24.182299999999998,21.9313 26.276200000000003,19.9072 26.276200000000003,17.4259 C26.276200000000003,16.3573 25.8868,15.366 25.2376,14.595099999999999 C24.4551,13.4312 25.3587,12.5779 26.160800000000002,12.5779 C25.957500000000003,11.6691 24.846400000000003,11.601 24.846400000000003,11.601 C24.7226,11.2431 24.408099999999997,10.7143 23.7979,10.7143 H22.2018 C22.1808,10.7143 22.1603,10.7174 22.1401,10.7205 L22.1401,10.7205 C22.1231,10.7231 22.1064,10.7256 22.0898,10.7262 C21.3049,10.8101 20.544,11.383000000000001 21.3042,12.511500000000002 L21.3045,12.5119 C21.3238,12.538799999999998 22.3915,14.020499999999998 22.3915,15.5439 C22.3915,18.1418 20.1994,20.4236 17.4935,20.4236 H12.511199999999999 H11.5504 H6.428599999999999 C6.428599999999999,21.2679 7.0931999999999995,21.9313 7.9133,21.9313 H11.145399999999999 H17.2097 L20.077,25.328 H11.145399999999999 V27.8378 H29.808500000000002 V25.328 H24.7115 L22.5187,22.8962 zM20.2966,18.4761 C21.0808,17.6869 21.5306,16.6207 21.5306,15.5545 C21.5306,14.268899999999999 20.5826,12.9372 20.5729,12.924 L20.5671,12.914200000000001 L20.5606,12.9036 C20.3496,12.592300000000002 20.2302,12.317699999999999 20.1733,12.066099999999999 L13.035699999999999,19.7266 H17.3616 C18.4572,19.7266 19.4996,19.2781 20.2966,18.4761 zM7.8444,27.8378 H10.2041 V25.3032 H7.8444 V27.8378 zM30.823500000000003,27.8572 V25.3232 L32.8572,26.5354 L30.823500000000003,27.8572 zM23.0937,12.381599999999999 C23.3272,12.381599999999999 23.5162,12.200099999999999 23.5162,11.9761 C23.5162,11.752 23.3272,11.5705 23.0937,11.5705 C22.8603,11.5705 22.6711,11.752 22.6711,11.9761 C22.6711,12.200099999999999 22.8603,12.381599999999999 23.0937,12.381599999999999 z" fill="white" id="svg_3" class=""/></g></svg>